<svg width="363" height="242" viewBox="0 0 363 242" fill="none" xmlns="http://www.w3.org/2000/svg">
<path d="M362.14 211.941H0V212.104H362.14V211.941Z" fill="#EBEBEB"/>
<path d="M325.854 222.357H287.416V222.52H325.854V222.357Z" fill="#EBEBEB"/>
<path d="M239.896 220.332H197.41V220.494H239.896V220.332Z" fill="#EBEBEB"/>
<path d="M289.27 219.399H275.371V219.561H289.27V219.399Z" fill="#EBEBEB"/>
<path d="M104.05 217.438H72.7684V217.6H104.05V217.438Z" fill="#EBEBEB"/>
<path d="M68.7343 217.438H57.5513V217.6H68.7343V217.438Z" fill="#EBEBEB"/>
<path d="M134.477 220.169H95.2211V220.333H134.477V220.169Z" fill="#EBEBEB"/>
<path d="M171.654 183.07H31.8032C30.7076 183.068 29.6575 182.678 28.8835 181.985C28.1095 181.292 27.6748 180.353 27.6748 179.373V3.66399C27.6843 2.69039 28.1232 1.75948 28.8962 1.07344C29.6692 0.38741 30.7138 0.00166782 31.8032 0H171.654C172.751 0 173.803 0.389436 174.579 1.08264C175.354 1.77584 175.79 2.71602 175.79 3.69635V179.373C175.79 180.354 175.354 181.294 174.579 181.987C173.803 182.68 172.751 183.07 171.654 183.07ZM31.8032 0.12947C30.7556 0.131185 29.7516 0.504326 29.0116 1.16699C28.2715 1.82965 27.8558 2.72769 27.8558 3.66399V179.373C27.8558 180.31 28.2715 181.208 29.0116 181.87C29.7516 182.533 30.7556 182.906 31.8032 182.908H171.654C172.703 182.906 173.707 182.533 174.449 181.871C175.19 181.208 175.607 180.31 175.609 179.373V3.66399C175.607 2.7271 175.19 1.82907 174.449 1.1666C173.707 0.504115 172.703 0.131181 171.654 0.12947H31.8032Z" fill="#EBEBEB"/>
<path d="M328.324 183.07H188.465C187.369 183.068 186.318 182.678 185.543 181.985C184.768 181.292 184.331 180.353 184.329 179.373V3.66399C184.341 2.6898 184.781 1.75889 185.555 1.07304C186.33 0.387184 187.375 0.00164963 188.465 0H328.324C329.412 0.00336912 330.454 0.389864 331.226 1.07572C331.997 1.76157 332.435 2.69151 332.445 3.66399V179.373C332.445 180.352 332.011 181.29 331.239 181.983C330.466 182.675 329.418 183.066 328.324 183.07ZM188.465 0.12947C187.417 0.131181 186.412 0.504115 185.671 1.1666C184.93 1.82907 184.512 2.7271 184.51 3.66399V179.373C184.512 180.31 184.93 181.208 185.671 181.871C186.412 182.533 187.417 182.906 188.465 182.908H328.324C329.372 182.906 330.377 182.533 331.118 181.871C331.859 181.208 332.276 180.31 332.278 179.373V3.66399C332.276 2.7271 331.859 1.82907 331.118 1.1666C330.377 0.504115 329.372 0.131181 328.324 0.12947H188.465Z" fill="#EBEBEB"/>
<path d="M193.173 206.465H200.785V125.527H193.173V206.465Z" fill="#F0F0F0"/>
<path d="M46.8899 211.858L197.859 211.858V206.465L46.8899 206.465V211.858Z" fill="#F0F0F0"/>
<path d="M193.173 125.527H43.9711V206.465H193.173V125.527Z" fill="#F5F5F5"/>
<path d="M194.969 125.527H202.835V120.426H194.969V125.527Z" fill="#E0E0E0"/>
<path d="M194.969 120.426H41.9286V125.527H194.969V120.426Z" fill="#EBEBEB"/>
<path d="M181.548 131.807H55.5885C52.4764 131.807 49.9536 134.062 49.9536 136.843V154.691C49.9536 157.472 52.4764 159.727 55.5885 159.727H181.548C184.66 159.727 187.183 157.472 187.183 154.691V136.843C187.183 134.062 184.66 131.807 181.548 131.807Z" fill="white"/>
<path d="M181.548 168.064H55.5885C52.4764 168.064 49.9536 170.319 49.9536 173.101V190.948C49.9536 193.73 52.4764 195.984 55.5885 195.984H181.548C184.66 195.984 187.183 193.73 187.183 190.948V173.101C187.183 170.319 184.66 168.064 181.548 168.064Z" fill="white"/>
<path d="M86.1387 134.791H151.005C151.713 134.791 152.287 134.278 152.287 133.645V132.111C152.287 131.478 151.713 130.965 151.005 130.965H86.1387C85.4307 130.965 84.8568 131.478 84.8568 132.111V133.645C84.8568 134.278 85.4307 134.791 86.1387 134.791Z" fill="#F5F5F5"/>
<path d="M86.1387 171.049H151.005C151.713 171.049 152.287 170.536 152.287 169.903V168.369C152.287 167.736 151.713 167.223 151.005 167.223H86.1387C85.4307 167.223 84.8568 167.736 84.8568 168.369V169.903C84.8568 170.536 85.4307 171.049 86.1387 171.049Z" fill="#F5F5F5"/>
<path d="M323.891 152.082H300.931V156.004H323.891V152.082Z" fill="#E6E6E6"/>
<path d="M283.339 211.941H287.576V77.6821H283.339V211.941Z" fill="#E6E6E6"/>
<path d="M268.665 155.998H300.938V152.075H268.665V155.998Z" fill="#F5F5F5"/>
<path d="M323.891 188.204H300.931V192.127H323.891V188.204Z" fill="#E6E6E6"/>
<path d="M268.665 192.126H300.938V188.204H268.665V192.126Z" fill="#F5F5F5"/>
<path d="M323.891 79.8311H300.931V83.7539H323.891V79.8311Z" fill="#E6E6E6"/>
<path d="M268.665 83.7534H300.938V79.8311H268.665V83.7534Z" fill="#F5F5F5"/>
<path d="M323.891 115.953H300.931V119.876H323.891V115.953Z" fill="#E6E6E6"/>
<path d="M268.665 119.882H300.938V115.959H268.665V119.882Z" fill="#F5F5F5"/>
<path d="M315.612 211.941H319.849V77.6821H315.612V211.941Z" fill="#E6E6E6"/>
<path d="M296.694 211.941H300.931V77.6821H296.694V211.941Z" fill="#F5F5F5"/>
<path d="M268.665 211.941H272.902V77.6821H268.665V211.941Z" fill="#F5F5F5"/>
<path d="M63.657 109.169L255.012 109.169V18.3652L63.657 18.3652V109.169Z" fill="#E0E0E0"/>
<path d="M58.826 109.169L252.281 109.169V18.3652L58.826 18.3652V109.169Z" fill="#F5F5F5"/>
<path d="M245.343 102.009V25.5186L65.7502 25.5186V102.009L245.343 102.009Z" fill="white"/>
<path d="M181.07 241.176C258.628 241.176 321.501 237.895 321.501 233.848C321.501 229.8 258.628 226.52 181.07 226.52C103.512 226.52 40.6394 229.8 40.6394 233.848C40.6394 237.895 103.512 241.176 181.07 241.176Z" fill="#F5F5F5"/>
<path d="M280.89 135.438H80.0618C79.4227 135.436 78.8104 135.209 78.3585 134.805C77.9066 134.401 77.6519 133.853 77.65 133.282C77.6519 132.711 77.9066 132.164 78.3585 131.76C78.8104 131.356 79.4227 131.128 80.0618 131.126H280.89C281.529 131.128 282.142 131.356 282.594 131.76C283.046 132.164 283.3 132.711 283.302 133.282C283.3 133.853 283.046 134.401 282.594 134.805C282.142 135.209 281.529 135.436 280.89 135.438Z" fill="#C53F3F"/>
<path opacity="0.3" d="M280.89 135.438H233.877C233.238 135.436 232.626 135.209 232.174 134.805C231.722 134.401 231.467 133.853 231.465 133.282C231.467 132.711 231.722 132.164 232.174 131.76C232.626 131.356 233.238 131.128 233.877 131.126H280.89C281.529 131.128 282.142 131.356 282.594 131.76C283.046 132.164 283.3 132.711 283.302 133.282C283.3 133.853 283.046 134.401 282.594 134.805C282.142 135.209 281.529 135.436 280.89 135.438Z" fill="#263238"/>
<path d="M275.792 140.843H121.339V155.868H275.792V140.843Z" fill="#263238"/>
<path opacity="0.1" d="M275.792 140.843H121.339V155.868H275.792V140.843Z" fill="white"/>
<path d="M273.546 230.857H278.167L277.979 135.438H271.576L273.546 230.857Z" fill="#263238"/>
<path opacity="0.1" d="M273.546 230.857H278.167L277.979 135.438H271.576L273.546 230.857Z" fill="white"/>
<path d="M230.958 230.857H226.33L236.789 135.438H243.192L230.958 230.857Z" fill="#263238"/>
<path opacity="0.2" d="M230.958 230.857H226.33L236.789 135.438H243.192L230.958 230.857Z" fill="white"/>
<path d="M119.731 230.857H124.352L124.163 135.438H117.761L119.731 230.857Z" fill="#263238"/>
<path opacity="0.1" d="M119.731 230.857H124.352L124.163 135.438H117.761L119.731 230.857Z" fill="white"/>
<path d="M77.143 230.857H72.5149L82.9735 135.438H89.3761L77.143 230.857Z" fill="#263238"/>
<path opacity="0.2" d="M77.143 230.857H72.5149L82.9735 135.438H89.3761L77.143 230.857Z" fill="white"/>
<path d="M207.224 131.126H196.562L192.296 112.496H202.958L207.224 131.126Z" fill="#263238"/>
<path d="M221.369 127.288H175.116C174.757 127.291 174.4 127.228 174.069 127.102C173.738 126.976 173.44 126.79 173.194 126.556C172.947 126.322 172.758 126.044 172.637 125.741C172.517 125.438 172.468 125.116 172.495 124.796L174.262 98.6237C174.316 97.9531 174.65 97.3251 175.197 96.8637C175.744 96.4023 176.465 96.141 177.217 96.1314H223.477C223.836 96.1289 224.192 96.1927 224.523 96.319C224.853 96.4454 225.151 96.6314 225.397 96.8654C225.643 97.0994 225.833 97.3764 225.953 97.679C226.074 97.9816 226.124 98.3032 226.099 98.6237L224.331 124.796C224.275 125.467 223.94 126.095 223.392 126.556C222.844 127.017 222.122 127.278 221.369 127.288Z" fill="#263238"/>
<path d="M220.645 127.288H174.392C174.032 127.291 173.676 127.228 173.345 127.102C173.014 126.976 172.716 126.79 172.469 126.556C172.223 126.322 172.033 126.044 171.913 125.741C171.793 125.438 171.744 125.116 171.77 124.796L173.537 98.6237C173.592 97.9531 173.925 97.3251 174.473 96.8637C175.02 96.4023 175.74 96.141 176.493 96.1314H222.752C223.112 96.1289 223.468 96.1927 223.798 96.319C224.129 96.4454 224.426 96.6314 224.673 96.8654C224.919 97.0994 225.108 97.3764 225.229 97.679C225.35 97.9816 225.399 98.3032 225.374 98.6237L223.607 124.796C223.551 125.467 223.216 126.095 222.668 126.556C222.119 127.017 221.398 127.278 220.645 127.288Z" fill="#C53F3F"/>
<path d="M174.385 125.993C174.224 125.994 174.065 125.966 173.917 125.91C173.769 125.855 173.635 125.773 173.523 125.669C173.414 125.562 173.33 125.436 173.277 125.3C173.223 125.163 173.201 125.018 173.212 124.873L174.979 98.7011C175.006 98.3556 175.176 98.0316 175.456 97.7922C175.736 97.5528 176.105 97.4152 176.493 97.4064H222.752C222.914 97.4041 223.074 97.4321 223.223 97.4885C223.372 97.5449 223.506 97.6286 223.617 97.734C223.727 97.8395 223.812 97.9645 223.865 98.1009C223.918 98.2374 223.939 98.3823 223.926 98.5263L222.158 124.698C222.133 125.044 221.964 125.369 221.683 125.609C221.403 125.849 221.033 125.986 220.645 125.993H174.385Z" fill="white"/>
<path opacity="0.2" d="M194.701 96.1313L197.707 105.33L206.63 96.1313H194.701Z" fill="black"/>
<path d="M122.802 73.7979C122.874 74.2962 123.222 74.6716 123.591 74.6457C123.96 74.6198 124.192 74.1927 124.12 73.6943C124.047 73.196 123.7 72.8206 123.338 72.8465C122.975 72.8724 122.736 73.3125 122.802 73.7979Z" fill="#263238"/>
<path d="M123.41 74.542C124.062 75.8342 124.905 77.0426 125.916 78.1349C125.119 78.8535 123.664 78.5622 123.664 78.5622L123.41 74.542Z" fill="#A02724"/>
<path d="M120.955 71.9014C120.9 71.9105 120.843 71.9105 120.788 71.9014C120.708 71.8699 120.644 71.812 120.61 71.7396C120.577 71.6673 120.576 71.5861 120.607 71.513C120.795 71.0818 121.098 70.698 121.489 70.3947C121.88 70.0914 122.348 69.8776 122.852 69.7718C122.895 69.7653 122.938 69.7663 122.98 69.7749C123.022 69.7834 123.061 69.7993 123.096 69.8215C123.131 69.8438 123.161 69.872 123.184 69.9046C123.207 69.9371 123.222 69.9734 123.229 70.0113C123.244 70.0884 123.224 70.1677 123.174 70.2319C123.124 70.2962 123.047 70.3401 122.961 70.3543C122.566 70.4396 122.201 70.6107 121.898 70.8523C121.595 71.0939 121.363 71.3987 121.223 71.7395C121.196 71.7839 121.158 71.8218 121.111 71.85C121.064 71.8782 121.011 71.8958 120.955 71.9014Z" fill="#263238"/>
<path d="M106.39 81.6113L110.735 84.5891L116.667 88.648C116.342 89.2579 116.145 89.9163 116.088 90.59C115.878 92.0789 115.668 93.1794 119.369 94.0921C119.762 94.176 120.12 94.3591 120.4 94.6196C120.679 94.8801 120.87 95.2071 120.948 95.5616C121.092 96.442 120.491 97.5036 117.073 98.028C113.761 98.4701 110.379 97.9553 107.418 96.5585C105.969 95.9112 105.969 95.1343 106.578 93.8202C108.403 90.0851 107.519 85.3206 106.39 81.6113Z" fill="#B55B52"/>
<path d="M101.399 94.9985C102.234 93.5634 102.922 92.0642 103.456 90.5189C103.456 90.5189 114.465 89.9816 118.101 90.9526C121.737 91.9236 123.997 96.1313 123.997 96.1313L101.399 94.9985Z" fill="#C53F3F"/>
<path d="M106.006 102.32C105.738 103.045 105.441 103.932 105.158 104.747L104.34 107.272C103.833 108.955 103.34 110.645 102.956 112.328C102.548 113.974 102.236 115.637 102.022 117.312C101.799 118.851 101.745 120.406 101.863 121.954C101.905 122.609 102.017 123.259 102.196 123.896C102.239 124.025 102.276 124.168 102.326 124.291L102.471 124.64C102.437 124.578 102.398 124.517 102.355 124.459C102.281 124.365 102.201 124.274 102.116 124.187C102.023 124.087 101.916 123.998 101.798 123.922C101.653 123.831 101.631 123.844 101.66 123.877C101.872 124.013 102.1 124.128 102.341 124.22C102.667 124.349 103.065 124.479 103.463 124.602C104.282 124.848 105.187 125.074 106.121 125.294C109.859 126.136 113.936 126.79 117.913 127.547L117.782 132.033C115.658 132.286 113.521 132.444 111.38 132.506C109.207 132.576 107.031 132.544 104.861 132.409C103.712 132.34 102.569 132.215 101.435 132.033C100.841 131.936 100.226 131.826 99.574 131.664C98.8243 131.491 98.0962 131.25 97.4011 130.946C96.8866 130.724 96.4008 130.453 95.9526 130.136C95.6352 129.911 95.3419 129.659 95.0762 129.386C94.9102 129.21 94.7554 129.026 94.6127 128.835C94.5402 128.725 94.4606 128.615 94.3954 128.505L94.3012 128.35L93.8015 127.437C93.6494 127.133 93.5262 126.835 93.3959 126.531C92.9389 125.397 92.6089 124.227 92.4109 123.035C91.6866 118.536 92.2588 114.522 93.012 110.619C93.4176 108.677 93.8956 106.735 94.4606 104.89C94.7503 103.951 95.0545 103.013 95.3804 102.087C95.7063 101.161 96.054 100.268 96.4741 99.2515L106.006 102.32Z" fill="#B55B52"/>
<path d="M99.306 94.1958C106.15 92.5775 110.214 97.5879 107.896 105.848C105.578 114.108 104.803 114.418 104.803 114.418L90.6871 112.315C92.4253 104.223 92.2877 95.8465 99.306 94.1958Z" fill="#C53F3F"/>
<path d="M121.418 125.754L120.354 125.669C117.326 125.669 116.805 126.407 114.943 127.955L114.219 131.36C119.108 133.593 121.73 131.14 121.737 131.14H126.264L124.67 127.903C124.392 127.318 123.944 126.81 123.372 126.432C122.8 126.054 122.126 125.82 121.418 125.754Z" fill="#B55B52"/>
<path d="M104.521 75.1703C105.752 81.0675 106.136 84.5761 109.917 87.2108C115.595 91.1661 123.417 87.405 124.185 81.2682C124.873 75.7464 122.736 67.0267 115.914 65.4795C114.392 65.1437 112.8 65.1559 111.285 65.515C109.77 65.8741 108.381 66.5686 107.246 67.5343C106.111 68.5 105.266 69.7058 104.789 71.0404C104.313 72.375 104.221 73.7953 104.521 75.1703Z" fill="#B55B52"/>
<path d="M117.594 77.2286C122.302 76.892 120.926 72.4576 119.47 71.5319C121.679 70.781 123.2 67.6478 121.078 65.4985C122.324 62.5919 118.76 59.0897 112.51 59.6141C107.947 59.9896 107.44 62.1453 107.44 62.1453C107.44 62.1453 101.971 61.6338 99.6971 65.6669C97.7561 69.1237 100.11 70.9687 100.11 70.9687C100.11 70.9687 96.025 72.0304 97.1549 76.7949C98.3572 81.9349 102.775 80.7438 102.775 80.7438C102.775 80.7438 101.783 85.4565 107.758 85.5212C112.923 85.5795 112.988 82.1226 112.988 82.1226C112.988 82.1226 119.68 81.5659 117.594 77.2286Z" fill="#263238"/>
<path d="M114.089 77.5718C114.616 78.8369 115.648 79.8834 116.986 80.5109C118.71 81.3007 120.028 79.6628 119.723 77.9797C119.448 76.4713 117.978 74.5356 116.16 74.445C114.342 74.3543 113.444 76.0052 114.089 77.5718Z" fill="#B55B52"/>
<path d="M184.308 223.445L190.746 221.108L186.198 207.288L179.759 209.618L184.308 223.445Z" fill="#B55B52"/>
<path opacity="0.2" d="M181.968 216.324L188.472 214.188L186.198 207.288L179.759 209.618L181.968 216.324Z" fill="black"/>
<path d="M190.189 218.803L182.823 221.088C182.761 221.105 182.703 221.133 182.654 221.17C182.604 221.207 182.563 221.252 182.532 221.303C182.502 221.354 182.483 221.41 182.477 221.468C182.471 221.525 182.478 221.583 182.497 221.639L184.163 226.96C184.27 227.234 184.493 227.46 184.784 227.588C185.076 227.716 185.412 227.737 185.72 227.646C188.262 226.805 189.291 226.352 192.434 225.135C195.528 223.978 198.555 222.681 201.502 221.25C203.957 219.956 202.48 217.748 201.285 218.11C198.453 218.965 193.81 219.522 191.456 218.797C191.045 218.673 190.599 218.675 190.189 218.803Z" fill="#263238"/>
<path d="M132.594 143.712C132.594 143.712 181.258 147.596 182.519 160.109C185.054 185.569 188.943 210.116 188.943 210.116L179.042 213.353C179.042 213.353 166.925 185.388 167.084 165.449C153.048 161.908 116.138 167.107 110.105 157.429C104.774 148.884 109.453 142.747 109.453 142.747L132.594 143.712Z" fill="#263238"/>
<path d="M178.303 215.366L190.63 211.644L190.095 206.627L176.196 210.628L178.303 215.366Z" fill="#C53F3F"/>
<path d="M192.905 219.069C192.312 219.239 191.7 219.349 191.08 219.399C191.048 219.402 191.016 219.398 190.988 219.385C190.959 219.372 190.936 219.352 190.92 219.328C190.904 219.304 190.896 219.277 190.896 219.25C190.896 219.222 190.904 219.196 190.92 219.172C191.08 218.978 192.499 217.269 193.404 217.295C193.508 217.301 193.609 217.329 193.697 217.378C193.786 217.426 193.859 217.493 193.911 217.574C194.006 217.688 194.064 217.822 194.081 217.963C194.097 218.104 194.071 218.247 194.006 218.376C193.747 218.72 193.355 218.967 192.905 219.069ZM191.456 219.069C192.709 218.913 193.564 218.616 193.759 218.247C193.8 218.162 193.814 218.069 193.8 217.978C193.786 217.887 193.745 217.8 193.68 217.729C193.657 217.687 193.622 217.652 193.579 217.627C193.535 217.602 193.485 217.588 193.433 217.586C192.912 217.567 192.014 218.402 191.42 219.069H191.456Z" fill="#C53F3F"/>
<path d="M191.116 219.393C191.09 219.4 191.062 219.4 191.036 219.393C191.01 219.389 190.984 219.379 190.963 219.364C190.942 219.35 190.924 219.331 190.913 219.309C190.913 219.238 190.08 217.6 190.515 216.823C190.571 216.723 190.651 216.637 190.751 216.569C190.85 216.502 190.965 216.456 191.087 216.434C191.22 216.394 191.365 216.396 191.496 216.44C191.628 216.484 191.739 216.566 191.811 216.674C192.209 217.269 191.71 218.791 191.196 219.341C191.175 219.365 191.148 219.383 191.116 219.393ZM191.116 216.739C191.054 216.757 190.997 216.787 190.949 216.826C190.9 216.865 190.861 216.912 190.833 216.965C190.573 217.425 190.891 218.409 191.13 218.959C191.529 218.351 191.818 217.218 191.558 216.829C191.507 216.758 191.42 216.674 191.188 216.719L191.116 216.739Z" fill="#C53F3F"/>
<path d="M149.854 227.556L156.734 227.264L157.857 212.745L150.976 213.036L149.854 227.556Z" fill="#B55B52"/>
<path d="M156.894 226.216L149.1 225.995C149.036 225.991 148.971 225.998 148.909 226.016C148.847 226.034 148.79 226.063 148.741 226.101C148.692 226.139 148.652 226.185 148.623 226.237C148.593 226.289 148.576 226.345 148.572 226.403L147.999 231.9C147.994 232.046 148.02 232.191 148.078 232.328C148.135 232.465 148.222 232.59 148.334 232.696C148.445 232.803 148.58 232.888 148.729 232.948C148.878 233.008 149.038 233.041 149.202 233.046C151.918 233.078 153.214 232.974 156.64 233.046C158.748 233.104 162.898 233.382 165.788 233.046C168.678 232.709 168.236 230.178 166.976 230.08C163.999 229.867 160.008 228.028 158.103 226.598C157.761 226.35 157.334 226.215 156.894 226.216Z" fill="#263238"/>
<path d="M159.342 227.361C158.719 227.329 158.103 227.238 157.502 227.089C157.471 227.083 157.443 227.069 157.422 227.049C157.4 227.028 157.386 227.003 157.38 226.975C157.375 226.947 157.379 226.919 157.391 226.893C157.404 226.867 157.425 226.845 157.451 226.83C157.676 226.694 159.682 225.536 160.522 225.873C160.617 225.91 160.701 225.968 160.764 226.041C160.827 226.115 160.869 226.202 160.884 226.293C160.926 226.429 160.927 226.573 160.886 226.71C160.846 226.846 160.765 226.97 160.653 227.07C160.273 227.313 159.804 227.417 159.342 227.361ZM157.951 226.889C159.182 227.147 160.124 227.141 160.435 226.889C160.507 226.82 160.556 226.737 160.579 226.646C160.602 226.555 160.598 226.46 160.566 226.371C160.559 226.326 160.539 226.283 160.509 226.247C160.479 226.211 160.438 226.182 160.392 226.164C159.914 225.97 158.741 226.455 157.893 226.889H157.951Z" fill="#C53F3F"/>
<path d="M157.509 227.097C157.483 227.102 157.456 227.102 157.43 227.097C157.406 227.083 157.387 227.065 157.373 227.044C157.359 227.022 157.351 226.998 157.35 226.974C157.35 226.902 157.256 225.116 157.973 224.533C158.067 224.451 158.182 224.391 158.309 224.359C158.436 224.328 158.569 224.325 158.697 224.352C158.836 224.359 158.968 224.407 159.071 224.489C159.175 224.572 159.245 224.683 159.269 224.805C159.4 225.485 158.32 226.747 157.618 227.097C157.583 227.109 157.544 227.109 157.509 227.097ZM158.545 224.63C158.48 224.626 158.415 224.634 158.354 224.654C158.292 224.675 158.237 224.706 158.19 224.747C157.763 225.09 157.669 226.113 157.669 226.689C158.284 226.248 159.008 225.284 158.922 224.837C158.922 224.753 158.849 224.656 158.617 224.624L158.545 224.63Z" fill="#C53F3F"/>
<path opacity="0.2" d="M150.976 213.036L157.864 212.745L157.212 221.05L150.353 221.044L150.976 213.036Z" fill="black"/>
<path d="M116.428 143.019C116.428 143.019 168.866 150.185 168.033 160.976C166.534 180.397 159.247 218.351 159.247 218.351L148.919 218.48C148.919 218.48 146.478 179.549 150.368 165.359C137.468 165.359 101.081 164.957 96.1192 159.034C90.6292 152.489 96.2713 142.203 96.2713 142.203L116.428 143.019Z" fill="#263238"/>
<path d="M147.702 219.205L160.204 219.03L160.819 213.126L147.101 213.605L147.702 219.205Z" fill="#C53F3F"/>
<path d="M125.663 93.5414C121.44 92.8034 102.399 93.017 102.399 93.017C100.495 92.9705 98.6417 93.5638 97.2041 94.6797C95.7665 95.7956 94.8495 97.3529 94.6345 99.0439C93.9681 104.294 97.6982 116.024 97.8285 122.006C97.9879 129.353 96.4162 132.331 96.2568 142.223L132.594 143.711C132.594 123.818 131.623 107.349 130.747 99.4517C130.436 96.6746 129.885 94.2729 125.663 93.5414Z" fill="#C53F3F"/>
<path opacity="0.3" d="M125.663 93.5414C121.44 92.8034 102.399 93.017 102.399 93.017C100.495 92.9705 98.6417 93.5638 97.2041 94.6797C95.7665 95.7956 94.8495 97.3529 94.6345 99.0439C93.9681 104.294 97.6982 116.024 97.8285 122.006C97.9879 129.353 96.4162 132.331 96.2568 142.223L132.594 143.711C132.594 123.818 131.623 107.349 130.747 99.4517C130.436 96.6746 129.885 94.2729 125.663 93.5414Z" fill="white"/>
<path d="M130.638 99.8081C131.776 103.304 132.92 106.897 134.1 110.405C135.281 113.914 136.491 117.442 137.852 120.763C138.185 121.611 138.577 122.401 138.895 123.217L139.453 124.362L139.525 124.505V124.576V124.615V124.57C139.4 124.37 139.244 124.187 139.062 124.026C138.816 123.812 138.721 123.793 138.7 123.793C138.861 123.923 139.048 124.026 139.25 124.097C139.605 124.25 139.97 124.382 140.344 124.492C141.162 124.744 142.082 124.971 143.016 125.198C146.804 126.059 150.94 126.719 154.967 127.489L154.837 131.975C152.675 132.236 150.499 132.394 148.318 132.448C146.111 132.524 143.901 132.487 141.698 132.338C140.527 132.263 139.361 132.129 138.207 131.937C137.599 131.833 136.969 131.704 136.288 131.529C135.48 131.326 134.702 131.04 133.97 130.674C133.387 130.375 132.851 130.007 132.377 129.58C132.015 129.247 131.703 128.872 131.45 128.467L131.203 128.059L130.385 126.674C129.907 125.767 129.385 124.854 128.936 123.955C128.045 122.136 127.263 120.336 126.481 118.53C125.699 116.724 125.032 114.917 124.359 113.105C123.019 109.46 121.809 105.854 120.737 102.1L130.638 99.8081Z" fill="#B55B52"/>
<path d="M120.317 96.2027C125.286 91.6712 131.638 94.1441 134.368 102.327C137.099 110.509 136.606 111.105 136.606 111.105L123.258 115.733C120.107 107.939 115.233 100.818 120.317 96.2027Z" fill="#C53F3F"/>
<path d="M158.516 125.754L157.451 125.669C154.424 125.669 153.91 126.407 152.048 127.955L151.324 131.36C156.213 133.593 158.835 131.14 158.835 131.14H163.369L161.768 127.903C161.491 127.317 161.043 126.808 160.471 126.43C159.899 126.052 159.224 125.818 158.516 125.754Z" fill="#B55B52"/>
<path d="M97.8502 167.728H144.262C145.282 167.728 146.109 166.989 146.109 166.077V163.41C146.109 162.499 145.282 161.76 144.262 161.76H97.8502C96.8302 161.76 96.0033 162.499 96.0033 163.41V166.077C96.0033 166.989 96.8302 167.728 97.8502 167.728Z" fill="#C53F3F"/>
<path d="M98.0603 234.179H96.0034L98.3717 167.721H101.218L98.0603 234.179Z" fill="#C53F3F"/>
<path opacity="0.4" d="M98.0603 234.179H96.0034L98.3717 167.721H101.218L98.0603 234.179Z" fill="white"/>
<path d="M116.978 234.179H119.035L116.674 167.721H113.828L116.978 234.179Z" fill="#C53F3F"/>
<path opacity="0.4" d="M116.978 234.179H119.035L116.674 167.721H113.828L116.978 234.179Z" fill="white"/>
<path d="M125.134 234.179H123.077L125.445 167.721H128.292L125.134 234.179Z" fill="#C53F3F"/>
<path opacity="0.4" d="M125.134 234.179H123.077L125.445 167.721H128.292L125.134 234.179Z" fill="white"/>
<path d="M144.052 234.179H146.109L143.748 167.721H140.901L144.052 234.179Z" fill="#C53F3F"/>
<path opacity="0.4" d="M144.052 234.179H146.109L143.748 167.721H140.901L144.052 234.179Z" fill="white"/>
<g opacity="0.3">
<path opacity="0.3" d="M98.3717 167.722H101.218L101.08 170.544H98.2703L98.3717 167.722Z" fill="#C53F3F"/>
<path opacity="0.3" d="M116.768 170.544H113.958L113.828 167.722H116.667L116.768 170.544Z" fill="#C53F3F"/>
<path opacity="0.3" d="M128.284 167.722L128.154 170.544H125.344L125.445 167.722H128.284Z" fill="#C53F3F"/>
<path opacity="0.3" d="M143.849 170.544H141.032L140.901 167.722H143.748L143.849 170.544Z" fill="#C53F3F"/>
</g>
<path d="M281.745 86.4919H165.737C164.836 86.5002 163.942 86.3414 163.113 86.0255C162.284 85.7095 161.537 85.2433 160.92 84.6562C160.302 84.0691 159.828 83.374 159.526 82.6147C159.225 81.8555 159.103 81.0486 159.168 80.245L163.593 14.6237C163.732 12.9424 164.571 11.3686 165.944 10.2124C167.316 9.05618 169.124 8.40131 171.01 8.37678H286.989C287.89 8.36841 288.784 8.52721 289.613 8.84317C290.442 9.15914 291.189 9.62538 291.807 10.2124C292.424 10.7995 292.898 11.4946 293.2 12.2539C293.501 13.0132 293.623 13.8201 293.558 14.6237L289.126 80.2709C288.982 81.9426 288.146 83.5064 286.781 84.6567C285.416 85.8071 283.621 86.4614 281.745 86.4919Z" fill="#C53F3F"/>
<path d="M181.258 72.6191L191.956 105.33L223.694 72.6191H181.258Z" fill="#C53F3F"/>
<path opacity="0.1" d="M276.089 60.0867H211.077C210.572 60.0915 210.071 60.0025 209.605 59.8254C209.14 59.6483 208.721 59.387 208.375 59.0579C208.029 58.7288 207.762 58.3391 207.593 57.9134C207.423 57.4877 207.354 57.0353 207.391 56.5846L209.875 19.8022C209.953 18.8596 210.423 17.9773 211.192 17.329C211.962 16.6808 212.975 16.3137 214.032 16.3001H279.044C279.551 16.2904 280.054 16.376 280.522 16.5514C280.99 16.7267 281.411 16.988 281.759 17.3181C282.106 17.6483 282.372 18.04 282.54 18.4679C282.707 18.8959 282.772 19.3504 282.73 19.8022L280.246 56.5846C280.168 57.5271 279.698 58.4095 278.929 59.0578C278.159 59.706 277.146 60.0731 276.089 60.0867Z" fill="white"/>
<path opacity="0.1" d="M241.309 75.953H176.29C175.785 75.9568 175.285 75.8672 174.82 75.6897C174.356 75.5122 173.938 75.2508 173.593 74.9218C173.247 74.5928 172.981 74.2034 172.812 73.7782C172.643 73.3529 172.575 72.901 172.611 72.4508L175.095 35.6683C175.172 34.7268 175.641 33.8454 176.409 33.1973C177.177 32.5492 178.189 32.1814 179.245 32.1661H244.264C244.77 32.1574 245.273 32.2437 245.74 32.4194C246.207 32.5952 246.627 32.8566 246.974 33.1866C247.321 33.5167 247.586 33.9081 247.753 34.3356C247.92 34.7631 247.985 35.2171 247.943 35.6683L245.459 72.4508C245.381 73.3923 244.912 74.2738 244.144 74.9219C243.376 75.57 242.365 75.9378 241.309 75.953Z" fill="white"/>
<g opacity="0.5">
<path opacity="0.5" d="M175.428 14.0862C175.415 14.5832 175.194 15.0579 174.81 15.4172C174.425 15.7764 173.904 15.9943 173.349 16.0281C173.086 16.0164 172.827 15.9553 172.592 15.8486C172.356 15.742 172.148 15.5922 171.982 15.4091C171.815 15.2259 171.693 15.0135 171.624 14.7856C171.556 14.5577 171.541 14.3194 171.582 14.0862C171.599 13.5901 171.82 13.117 172.204 12.7583C172.588 12.3997 173.107 12.1809 173.661 12.1443C173.925 12.156 174.183 12.2171 174.418 12.3237C174.654 12.4304 174.862 12.5801 175.029 12.7633C175.195 12.9464 175.317 13.1588 175.386 13.3868C175.455 13.6147 175.469 13.853 175.428 14.0862Z" fill="white"/>
<path opacity="0.5" d="M182.519 14.0859C182.504 14.5825 182.283 15.0564 181.899 15.4154C181.514 15.7743 180.995 15.9926 180.44 16.0278C180.176 16.017 179.917 15.9565 179.68 15.8503C179.444 15.744 179.235 15.5944 179.067 15.4111C178.9 15.2279 178.778 15.0152 178.708 14.7868C178.639 14.5585 178.625 14.3197 178.666 14.0859C178.682 13.5898 178.904 13.1167 179.287 12.7581C179.671 12.3994 180.19 12.1807 180.744 12.144C181.008 12.1558 181.267 12.217 181.503 12.3236C181.739 12.4301 181.947 12.5797 182.114 12.7628C182.281 12.9458 182.404 13.1581 182.473 13.386C182.543 13.6139 182.559 13.8524 182.519 14.0859Z" fill="white"/>
<path opacity="0.5" d="M189.66 14.0859C189.647 14.583 189.427 15.0577 189.042 15.4169C188.657 15.7762 188.137 15.9941 187.582 16.0278C187.318 16.0162 187.06 15.955 186.824 15.8484C186.588 15.7417 186.38 15.592 186.214 15.4088C186.047 15.2257 185.925 15.0133 185.857 14.7854C185.788 14.5574 185.773 14.3191 185.814 14.0859C185.831 13.5898 186.052 13.1167 186.436 12.7581C186.82 12.3994 187.339 12.1807 187.893 12.144C188.157 12.1557 188.415 12.2169 188.651 12.3235C188.886 12.4301 189.094 12.5799 189.261 12.763C189.427 12.9462 189.549 13.1586 189.618 13.3865C189.687 13.6144 189.701 13.8527 189.66 14.0859Z" fill="white"/>
</g>
<path opacity="0.3" d="M280.847 85.8836H164.868C163.942 85.8901 163.025 85.7254 162.174 85.3998C161.323 85.0743 160.556 84.5949 159.922 83.9918C159.288 83.3888 158.801 82.675 158.49 81.8954C158.18 81.1159 158.053 80.2873 158.118 79.4619L162.55 13.84C162.69 12.1175 163.547 10.5043 164.952 9.31894C166.357 8.13362 168.209 7.46235 170.141 7.43769H286.091C287.017 7.43118 287.934 7.59589 288.785 7.92144C289.636 8.247 290.403 8.72638 291.037 9.32946C291.671 9.93254 292.158 10.6463 292.469 11.4258C292.779 12.2054 292.906 13.034 292.841 13.8594L288.416 79.4813C288.275 81.2 287.421 82.8097 286.02 83.9942C284.62 85.1788 282.775 85.8527 280.847 85.8836ZM170.141 7.76784C168.298 7.78792 166.531 8.42583 165.19 9.55521C163.848 10.6846 163.03 12.223 162.898 13.8659L158.465 79.4878C158.401 80.2696 158.519 81.0547 158.812 81.7936C159.105 82.5325 159.566 83.2091 160.167 83.7804C160.767 84.3518 161.494 84.8055 162.3 85.1129C163.107 85.4204 163.977 85.5748 164.854 85.5664H280.847C282.689 85.5448 284.455 84.9064 285.796 83.7773C287.137 82.6483 287.956 81.1106 288.09 79.4684L292.515 13.8465C292.577 13.0624 292.457 12.2753 292.161 11.535C291.865 10.7947 291.401 10.1174 290.797 9.54602C290.193 8.97459 289.463 8.52148 288.653 8.21539C287.843 7.9093 286.97 7.7569 286.091 7.76784H170.141Z" fill="#263238"/>
<path d="M218.045 47.5216C217.552 48.4538 217.103 49.25 216.596 50.111C216.089 50.972 215.582 51.7488 215.061 52.558C213.996 54.17 212.888 55.7948 211.7 57.3097C211.101 58.0865 210.488 58.8569 209.86 59.6208C209.201 60.3717 208.578 61.1356 207.876 61.8671C206.505 63.3833 205.027 64.819 203.45 66.1656C203.052 66.5152 202.617 66.813 202.197 67.182C201.781 67.5314 201.34 67.8578 200.879 68.1595L199.489 69.0982L199.061 69.3636C198.872 69.4707 198.676 69.568 198.475 69.6549C198.077 69.8255 197.659 69.9558 197.229 70.0433C196.379 70.2208 195.495 70.227 194.642 70.0612C193.789 69.8955 192.987 69.5621 192.296 69.0852C191.954 68.8435 191.64 68.5701 191.362 68.2695L191.167 68.0365L191.072 67.92L191.036 67.8682L190.906 67.661L190.384 66.8194C190.225 66.5475 190.116 66.2886 189.986 66.0232C189.53 65.0464 189.157 64.0401 188.871 63.0129C188.366 61.1412 188.013 59.2396 187.813 57.3226C187.601 55.4558 187.51 53.5797 187.538 51.7035C187.553 51.1712 187.781 50.6613 188.18 50.2658C188.579 49.8702 189.123 49.6151 189.713 49.5464C190.304 49.4776 190.903 49.5998 191.402 49.8909C191.901 50.182 192.267 50.6228 192.434 51.1338V51.2115C193.394 54.5109 194.582 57.7539 195.99 60.922C196.313 61.5922 196.688 62.2412 197.113 62.864C197.207 62.9935 197.301 63.1489 197.395 63.2589L197.671 63.5567L197.736 63.6344L197.7 63.5826L197.62 63.4855C197.507 63.3528 197.375 63.2332 197.229 63.1295C196.94 62.921 196.604 62.7709 196.244 62.6893C195.883 62.6211 195.511 62.6211 195.15 62.6893C194.963 62.7246 194.781 62.7789 194.607 62.8511C194.513 62.8511 194.433 62.9353 194.346 62.9741C194.259 63.0129 194.129 63.1101 194.223 63.0388L195.128 62.2491C195.433 62.0031 195.73 61.7053 196.027 61.4204C196.323 61.1356 196.628 60.8572 196.917 60.553C199.305 57.9932 201.479 55.2799 203.421 52.435C204.414 50.9914 205.391 49.5219 206.319 48.033L207.716 45.7931L209.042 43.605L209.114 43.4885C209.743 42.4828 210.782 41.733 212.014 41.3958C213.247 41.0586 214.577 41.1601 215.728 41.6789C216.879 42.1978 217.761 43.094 218.19 44.1803C218.619 45.2666 218.562 46.4591 218.03 47.5086L218.045 47.5216Z" fill="#263238"/>
<path d="M188.219 51.4185L184.692 49.6123L188.487 46.1489C189.599 46.8856 190.63 47.7159 191.565 48.6283C191.785 48.8371 191.948 49.0891 192.039 49.3641C192.131 49.6391 192.15 49.9295 192.093 50.212C192.037 50.4945 191.908 50.7613 191.715 50.991C191.523 51.2207 191.273 51.4071 190.986 51.535C190.548 51.7164 190.068 51.8005 189.586 51.7802C189.104 51.7599 188.635 51.6358 188.219 51.4185Z" fill="#FFC3BD"/>
<path d="M183.888 45.903L185.807 44.6795C186.056 44.5174 186.367 44.4496 186.672 44.4908C186.977 44.532 187.252 44.6788 187.437 44.8996L188.487 46.149L184.692 49.6123L183.497 47.1783C183.388 46.9579 183.368 46.7108 183.439 46.4786C183.51 46.2464 183.669 46.0431 183.888 45.903Z" fill="#FFC3BD"/>
<path d="M210.447 44.6218C210.735 43.7759 211.277 43.0172 212.016 42.4291C212.754 41.841 213.66 41.4461 214.633 41.288C216.039 41.0103 217.465 40.8157 218.899 40.7054C223.219 40.5547 227.545 40.6239 231.857 40.9125C234.116 41.0485 236.427 41.3333 238.267 41.6052H238.332C239.306 41.7496 240.176 42.2335 240.752 42.9507C241.328 43.6679 241.562 44.5599 241.403 45.431C240.497 50.1049 237.839 58.2355 237.55 65.9066C237.166 75.9793 237.34 81.7795 237.144 84.207L208.136 83.7086C206.116 59.09 208.629 50.1955 210.447 44.6218Z" fill="white"/>
<path d="M239.107 41.223H239.013C237.072 40.9382 234.667 40.6339 232.255 40.4915L230.966 40.4268C229.698 45.1136 222.144 52.9984 219.855 64.9485C218.972 54.9598 218.291 44.518 219.587 40.4462C217.537 40.5019 215.492 40.6553 213.46 40.9058C212.385 41.1231 211.394 41.591 210.588 42.2619C209.781 42.9328 209.188 43.7827 208.868 44.7252C207.086 49.412 203.682 59.9121 205.775 85.7285H238.013C238.223 83.1391 237.47 77.7014 238.636 69.3311C239.759 61.2262 241.374 50.1953 242.323 45.269C242.493 44.3517 242.25 43.4116 241.648 42.6536C241.045 41.8957 240.132 41.3814 239.107 41.223Z" fill="#263238"/>
<path opacity="0.2" d="M219.167 84.3817C219.119 84.3835 219.071 84.3683 219.034 84.3393C218.998 84.3103 218.975 84.2698 218.972 84.2263C218.291 76.9437 219.566 66.4892 219.58 66.3791C219.583 66.357 219.59 66.3355 219.602 66.316C219.615 66.2965 219.631 66.2793 219.65 66.2654C219.67 66.2516 219.692 66.2413 219.716 66.2353C219.74 66.2293 219.765 66.2275 219.79 66.2302C219.841 66.2352 219.887 66.2575 219.92 66.2926C219.952 66.3276 219.968 66.3726 219.964 66.418C219.964 66.5216 218.675 76.9502 219.356 84.194C219.359 84.2166 219.356 84.2395 219.349 84.2614C219.342 84.2832 219.33 84.3036 219.314 84.3211C219.297 84.3387 219.277 84.3531 219.255 84.3635C219.232 84.3739 219.207 84.3801 219.182 84.3817H219.167Z" fill="white"/>
<path opacity="0.3" d="M237.97 51.4701C236.775 56.3123 237.412 63.0188 238.694 69.1362C239.643 62.2679 240.939 53.3539 241.888 47.8385C240.563 47.0488 238.918 47.6055 237.97 51.4701Z" fill="black"/>
<path d="M219.515 40.6726C223.274 39.9346 223.926 37.8631 223.658 35.5715C223.592 34.9989 223.488 34.4304 223.346 33.8689L228.04 30.438L231.495 27.9263C230.553 31.642 229.517 38.4198 232.356 40.9509C232.356 40.9509 230.039 44.3495 223.593 43.9352C218.146 43.5856 219.515 40.6726 219.515 40.6726Z" fill="#FFC3BD"/>
<path d="M225.23 43.0806L224.187 43.9613L227.518 45.0815L227.084 43.9483L225.23 43.0806Z" fill="#E0E0E0"/>
<path d="M227.779 46.6606C227.779 46.6606 226.468 43.7022 225.23 43.0743C227.666 42.5551 229.897 41.4516 231.683 39.8828L233.66 40.5884C233.66 40.5884 234.283 44.0194 227.779 46.6606Z" fill="#F5F5F5"/>
<path d="M223.404 42.8477L224.187 43.9614L220.681 44.2334L221.384 43.2427L223.404 42.8477Z" fill="#E0E0E0"/>
<path d="M218.921 45.8257C220.206 44.6027 221.724 43.5943 223.404 42.8479C221.5 42.3429 221.384 39.9995 221.384 39.9995L219.537 40.3167C219.537 40.3167 216.147 43.2622 218.921 45.8257Z" fill="#F5F5F5"/>
<path opacity="0.2" d="M223.346 33.8627C223.487 34.4265 223.591 34.9972 223.658 35.5718C225.411 35.2869 227.757 33.6296 228.004 32.0435C228.087 31.5117 228.104 30.9732 228.054 30.438L223.346 33.8627Z" fill="black"/>
<path d="M217.646 16.9217C215.966 18.7667 216.125 25.441 219.682 25.5187C223.238 25.5964 220.703 13.5555 217.646 16.9217Z" fill="#263238"/>
<path d="M232.965 21.7766C232.61 26.8323 232.682 29.8036 229.829 32.4189C225.541 36.3482 218.588 34.089 217.248 29.0592C216.053 24.5278 216.835 17.0251 222.361 14.973C223.568 14.5115 224.888 14.3361 226.193 14.4639C227.497 14.5917 228.743 15.0183 229.81 15.7025C230.876 16.3867 231.727 17.3053 232.279 18.3694C232.832 19.4334 233.068 20.607 232.965 21.7766Z" fill="#FFC3BD"/>
<path d="M230.184 17.5687C226.627 20.7214 231.248 23.0325 229.459 24.7286C232.813 26.2952 231.581 27.4476 231.581 27.4476C231.234 28.3095 231.234 29.2528 231.581 30.1147C235.362 29.2473 242.381 18.0218 234.718 16.2998C230.133 18.1254 230.184 17.5687 230.184 17.5687Z" fill="#263238"/>
<path d="M231.639 19.8343C228.271 20.3004 224.034 18.8633 221.405 17.6463C218.776 16.4293 218.392 18.7274 219.363 19.4265C217.675 19.4783 215.539 18.2872 216.067 15.6266C216.553 13.1991 220.109 10.901 225.172 12.9531C228.757 14.4031 233.175 12.4935 234.899 14.1701C236.622 15.8467 233.885 19.5171 231.639 19.8343Z" fill="#263238"/>
<path d="M233.943 16.5396C236.202 16.2742 236.297 14.9989 235.666 12.7656C238.107 15.8664 237.115 16.8179 235.666 17.5688C234.051 17.0833 233.943 16.5396 233.943 16.5396Z" fill="#263238"/>
<path d="M234.486 25.6539C233.985 26.6429 233.111 27.4428 232.016 27.9133C230.618 28.4766 229.908 27.3242 230.285 25.9711C230.625 24.7476 231.734 22.9866 233.182 22.9996C234.631 23.0125 235.116 24.4044 234.486 25.6539Z" fill="#FFC3BD"/>
<path d="M224.136 23.3041C224.136 23.712 223.89 24.0486 223.593 24.0551C223.296 24.0616 223.078 23.7249 223.078 23.3041C223.078 22.8833 223.325 22.5596 223.622 22.5596C223.919 22.5596 224.136 22.8897 224.136 23.3041Z" fill="#263238"/>
<path d="M218.95 23.3433C218.95 23.7576 218.704 24.0877 218.4 24.0941C218.095 24.1006 217.856 23.764 217.864 23.3498C217.871 22.9356 218.103 22.6055 218.407 22.6055C218.711 22.6055 218.95 22.9356 218.95 23.3433Z" fill="#263238"/>
<path d="M220.906 23.4854C220.364 24.7462 219.633 25.9352 218.733 27.0199C219.045 27.2158 219.401 27.349 219.776 27.4105C220.151 27.4719 220.536 27.4602 220.906 27.3759V23.4854Z" fill="#ED847E"/>
<path d="M222.731 28.4832C223.257 28.4306 223.764 28.2808 224.222 28.0434C224.68 27.806 225.077 27.4861 225.389 27.1041C225.408 27.0775 225.415 27.0451 225.407 27.0142C225.4 26.9832 225.379 26.9562 225.349 26.939C225.319 26.9218 225.283 26.9159 225.248 26.9226C225.214 26.9293 225.184 26.948 225.164 26.9746C224.816 27.3817 224.366 27.7107 223.851 27.9354C223.335 28.1602 222.768 28.2746 222.195 28.2695C222.177 28.2695 222.159 28.2727 222.143 28.279C222.127 28.2852 222.112 28.2944 222.1 28.3059C222.088 28.3174 222.078 28.3311 222.072 28.346C222.066 28.3609 222.063 28.3767 222.064 28.3926C222.064 28.4084 222.068 28.4241 222.075 28.4387C222.082 28.4533 222.092 28.4664 222.105 28.4773C222.118 28.4883 222.133 28.4967 222.15 28.5022C222.167 28.5076 222.184 28.51 222.202 28.5091C222.39 28.4832 222.564 28.4832 222.731 28.4832Z" fill="#263238"/>
<path d="M226.649 21.6662C226.695 21.6639 226.738 21.6479 226.772 21.6209C226.801 21.6023 226.826 21.5787 226.844 21.5515C226.862 21.5242 226.874 21.4939 226.879 21.4623C226.884 21.4308 226.881 21.3987 226.872 21.3681C226.862 21.3375 226.845 21.3089 226.823 21.2842C226.574 20.9777 226.247 20.7286 225.87 20.5575C225.492 20.3864 225.074 20.2982 224.65 20.3003C224.615 20.3027 224.581 20.3114 224.55 20.3259C224.519 20.3403 224.491 20.3602 224.469 20.3844C224.447 20.4085 224.43 20.4365 224.42 20.4665C224.41 20.4966 224.407 20.5281 224.411 20.5593C224.418 20.6239 224.453 20.6836 224.509 20.7258C224.564 20.768 224.635 20.7895 224.708 20.7858C225.044 20.783 225.376 20.8534 225.676 20.991C225.975 21.1286 226.232 21.3292 226.425 21.5755C226.451 21.6056 226.485 21.6295 226.524 21.6453C226.564 21.661 226.606 21.6682 226.649 21.6662Z" fill="#263238"/>
<path d="M216.85 21.8675C216.893 21.8622 216.934 21.8476 216.969 21.8251C217.004 21.8025 217.033 21.7727 217.052 21.738C217.191 21.4579 217.402 21.211 217.667 21.0175C217.933 20.824 218.246 20.6894 218.581 20.6246C218.616 20.6217 218.651 20.612 218.682 20.5963C218.713 20.5806 218.74 20.5593 218.761 20.5336C218.782 20.5079 218.797 20.4786 218.805 20.4474C218.812 20.4162 218.812 20.384 218.805 20.3528C218.793 20.2904 218.755 20.2345 218.698 20.1962C218.642 20.1578 218.572 20.1398 218.501 20.1456C218.079 20.2201 217.682 20.3834 217.345 20.6221C217.007 20.8607 216.738 21.1678 216.56 21.5179C216.529 21.5756 216.525 21.6416 216.548 21.702C216.571 21.7624 216.62 21.8124 216.683 21.8416C216.735 21.8632 216.793 21.8721 216.85 21.8675Z" fill="#263238"/>
<path d="M243.184 44.149C244.068 45.8126 244.807 47.3857 245.531 49.004C246.255 50.6224 246.9 52.2731 247.545 53.9238C248.809 57.2882 249.83 60.7219 250.601 64.2036C250.768 65.1034 250.956 65.9838 251.079 66.9095L251.173 67.5956L251.224 67.9387V68.1135V68.353C251.296 69.0226 251.296 69.6967 251.224 70.3663C251.057 71.8313 250.492 73.2377 249.58 74.4639C248.725 75.587 247.602 76.5267 246.292 77.2151C245.2 77.7882 244.025 78.2238 242.801 78.5098C241.71 78.7766 240.595 78.9543 239.469 79.0406C237.345 79.2202 235.204 79.144 233.102 78.8141C232.533 78.7286 232.014 78.4687 231.634 78.0789C231.255 77.6891 231.039 77.1936 231.024 76.6773C231.009 76.1609 231.195 75.6559 231.55 75.2486C231.905 74.8412 232.408 74.557 232.972 74.4445L233.233 74.3927C233.957 74.2438 234.906 74.0626 235.717 73.8684C236.528 73.6742 237.354 73.4476 238.122 73.221C239.462 72.8374 240.705 72.2214 241.779 71.4085C242.063 71.1732 242.28 70.88 242.41 70.554C242.461 70.3254 242.461 70.0899 242.41 69.8613C242.385 69.6869 242.349 69.514 242.301 69.3435L242.04 68.2883C241.874 67.5503 241.635 66.7865 241.417 66.0356C240.968 64.5143 240.461 62.9931 239.882 61.4653C239.302 59.9376 238.708 58.4164 238.078 56.8951C237.448 55.3738 236.782 53.8526 236.108 52.3637C235.435 50.8748 234.725 49.3083 234.051 47.8906V47.8259C233.51 46.746 233.47 45.518 233.941 44.412C234.413 43.306 235.356 42.4127 236.565 41.9286C237.773 41.4444 239.147 41.4091 240.384 41.8303C241.622 42.2516 242.621 43.0949 243.163 44.1748L243.184 44.149Z" fill="#263238"/>
<path d="M230.814 76.3094L227.62 77.6815L233.139 79.4355C233.139 79.4355 236.818 78.387 235.036 76.5618L234.044 76.2835C232.451 75.8175 231.668 75.8693 230.814 76.3094Z" fill="#FFC3BD"/>
<path d="M228.047 81.1643L230.473 81.5786C230.82 81.6355 231.178 81.5944 231.497 81.461C231.817 81.3275 232.082 81.1084 232.255 80.8341L233.139 79.4165L227.62 77.6816L226.895 79.0346C226.783 79.2391 226.724 79.4639 226.723 79.6919C226.722 79.9198 226.78 80.1449 226.891 80.3502C227.002 80.5554 227.163 80.7354 227.364 80.8764C227.564 81.0175 227.798 81.1159 228.047 81.1643Z" fill="#FFC3BD"/>
</svg>
